<svg id="visual" viewBox="0 0 900 600" width="900" height="600" xmlns="http://www.w3.org/2000/svg" xmlns:xlink="http://www.w3.org/1999/xlink" version="1.1"><rect x="0" y="0" width="900" height="600" fill="#001220"></rect><path d="M0 374L21.5 378.2C43 382.3 86 390.7 128.8 402.8C171.7 415 214.3 431 257.2 428.7C300 426.3 343 405.7 385.8 393.7C428.7 381.7 471.3 378.3 514.2 383.5C557 388.7 600 402.3 642.8 409.7C685.7 417 728.3 418 771.2 410.2C814 402.3 857 385.7 878.5 377.3L900 369L900 601L878.5 601C857 601 814 601 771.2 601C728.3 601 685.7 601 642.8 601C600 601 557 601 514.2 601C471.3 601 428.7 601 385.8 601C343 601 300 601 257.2 601C214.3 601 171.7 601 128.8 601C86 601 43 601 21.5 601L0 601Z" fill="#9ec1e5"></path><path d="M0 469L21.5 466.3C43 463.7 86 458.3 128.8 456.7C171.7 455 214.3 457 257.2 456.7C300 456.3 343 453.7 385.8 446.2C428.7 438.7 471.3 426.3 514.2 423C557 419.7 600 425.3 642.8 430.8C685.7 436.3 728.3 441.7 771.2 436.8C814 432 857 417 878.5 409.5L900 402L900 601L878.5 601C857 601 814 601 771.2 601C728.3 601 685.7 601 642.8 601C600 601 557 601 514.2 601C471.3 601 428.7 601 385.8 601C343 601 300 601 257.2 601C214.3 601 171.7 601 128.8 601C86 601 43 601 21.5 601L0 601Z" fill="#7997b9"></path><path d="M0 504L21.5 498.5C43 493 86 482 128.8 477.7C171.7 473.3 214.3 475.7 257.2 475.8C300 476 343 474 385.8 477.2C428.7 480.3 471.3 488.7 514.2 484.5C557 480.3 600 463.7 642.8 463.8C685.7 464 728.3 481 771.2 489.3C814 497.7 857 497.3 878.5 497.2L900 497L900 601L878.5 601C857 601 814 601 771.2 601C728.3 601 685.7 601 642.8 601C600 601 557 601 514.2 601C471.3 601 428.7 601 385.8 601C343 601 300 601 257.2 601C214.3 601 171.7 601 128.8 601C86 601 43 601 21.5 601L0 601Z" fill="#556f8e"></path><path d="M0 484L21.5 491.2C43 498.3 86 512.7 128.8 516.5C171.7 520.3 214.3 513.7 257.2 508.3C300 503 343 499 385.8 497.2C428.7 495.3 471.3 495.7 514.2 496.5C557 497.3 600 498.7 642.8 501.7C685.7 504.7 728.3 509.3 771.2 509.2C814 509 857 504 878.5 501.5L900 499L900 601L878.5 601C857 601 814 601 771.2 601C728.3 601 685.7 601 642.8 601C600 601 557 601 514.2 601C471.3 601 428.7 601 385.8 601C343 601 300 601 257.2 601C214.3 601 171.7 601 128.8 601C86 601 43 601 21.5 601L0 601Z" fill="#334a66"></path><path d="M0 538L21.5 538.2C43 538.3 86 538.7 128.8 538.3C171.7 538 214.3 537 257.2 539.7C300 542.3 343 548.7 385.8 548.5C428.7 548.3 471.3 541.7 514.2 543.3C557 545 600 555 642.8 556.7C685.7 558.3 728.3 551.7 771.2 547.8C814 544 857 543 878.5 542.5L900 542L900 601L878.5 601C857 601 814 601 771.2 601C728.3 601 685.7 601 642.8 601C600 601 557 601 514.2 601C471.3 601 428.7 601 385.8 601C343 601 300 601 257.2 601C214.3 601 171.7 601 128.8 601C86 601 43 601 21.5 601L0 601Z" fill="#112840"></path></svg>